<svg width="48" height="48" viewBox="0 0 48 48" fill="none" xmlns="http://www.w3.org/2000/svg">
<mask id="path-1-inside-1_381_13124" fill="white">
<path d="M24.2694 7.01404C27.0185 7.05764 29.7159 7.76785 32.1301 9.08367L26.0325 20.2707C25.429 19.9418 24.7546 19.7642 24.0674 19.7533L24.2694 7.01404Z"/>
</mask>
<path d="M24.2694 7.01404C27.0185 7.05764 29.7159 7.76785 32.1301 9.08367L26.0325 20.2707C25.429 19.9418 24.7546 19.7642 24.0674 19.7533L24.2694 7.01404Z" fill="#FFB88C" stroke="#FFE2D0" stroke-width="0.08" mask="url(#path-1-inside-1_381_13124)"/>
<mask id="path-2-inside-2_381_13124" fill="white">
<path d="M32.1314 9.08463C34.5454 10.4006 36.604 12.2829 38.1302 14.5698L27.5328 21.6425C27.1512 21.0708 26.6365 20.6002 26.033 20.2712L32.1314 9.08463Z"/>
</mask>
<path d="M32.1314 9.08463C34.5454 10.4006 36.604 12.2829 38.1302 14.5698L27.5328 21.6425C27.1512 21.0708 26.6365 20.6002 26.033 20.2712L32.1314 9.08463Z" fill="#FFD275" stroke="#FFE2D0" stroke-width="0.08" mask="url(#path-2-inside-2_381_13124)"/>
<mask id="path-3-inside-3_381_13124" fill="white">
<path d="M38.1308 14.5708C39.6569 16.8578 40.6051 19.481 40.894 22.2152L28.2236 23.5538C28.1514 22.8703 27.9143 22.2144 27.5328 21.6427L38.1308 14.5708Z"/>
</mask>
<path d="M38.1308 14.5708C39.6569 16.8578 40.6051 19.481 40.894 22.2152L28.2236 23.5538C28.1514 22.8703 27.9143 22.2144 27.5328 21.6427L38.1308 14.5708Z" fill="#A3D977" stroke="#FFE2D0" stroke-width="0.08" mask="url(#path-3-inside-3_381_13124)"/>
<mask id="path-4-inside-4_381_13124" fill="white">
<path d="M40.894 22.2163C41.1826 24.9505 40.8033 27.714 39.7886 30.2693L27.9472 25.5672C28.2008 24.9284 28.2957 24.2375 28.2235 23.554L40.894 22.2163Z"/>
</mask>
<path d="M40.894 22.2163C41.1826 24.9505 40.8033 27.714 39.7886 30.2693L27.9472 25.5672C28.2008 24.9284 28.2957 24.2375 28.2235 23.554L40.894 22.2163Z" fill="#80CED7" stroke="#FFE2D0" stroke-width="0.08" mask="url(#path-4-inside-4_381_13124)"/>
<mask id="path-5-inside-5_381_13124" fill="white">
<path d="M39.7881 30.2704C38.7732 32.8257 37.1533 35.0964 35.0674 36.8877L26.7668 27.2217C27.2882 26.7739 27.6932 26.2062 27.947 25.5674L39.7881 30.2704Z"/>
</mask>
<path d="M39.7881 30.2704C38.7732 32.8257 37.1533 35.0964 35.0674 36.8877L26.7668 27.2217C27.2882 26.7739 27.6932 26.2062 27.947 25.5674L39.7881 30.2704Z" fill="#0077B6" stroke="#FFE2D0" stroke-width="0.08" mask="url(#path-5-inside-5_381_13124)"/>
<mask id="path-6-inside-6_381_13124" fill="white">
<path d="M35.0665 36.8887C32.9805 38.6798 30.491 39.9378 27.8116 40.5547L24.9529 28.1386C25.6228 27.9844 26.2452 27.6699 26.7667 27.2221L35.0665 36.8887Z"/>
</mask>
<path d="M35.0665 36.8887C32.9805 38.6798 30.491 39.9378 27.8116 40.5547L24.9529 28.1386C25.6228 27.9844 26.2452 27.6699 26.7667 27.2221L35.0665 36.8887Z" fill="#023E8A" stroke="#FFE2D0" stroke-width="0.08" mask="url(#path-6-inside-6_381_13124)"/>
<mask id="path-7-inside-7_381_13124" fill="white">
<path d="M27.8104 40.5551C25.131 41.1718 22.342 41.129 19.6828 40.4303L22.9207 28.1077C23.5855 28.2824 24.2828 28.2931 24.9526 28.1389L27.8104 40.5551Z"/>
</mask>
<path d="M27.8104 40.5551C25.131 41.1718 22.342 41.129 19.6828 40.4303L22.9207 28.1077C23.5855 28.2824 24.2828 28.2931 24.9526 28.1389L27.8104 40.5551Z" fill="#6A0572" stroke="#FFE2D0" stroke-width="0.08" mask="url(#path-7-inside-7_381_13124)"/>
<mask id="path-8-inside-8_381_13124" fill="white">
<path d="M19.6819 40.4299C17.0228 39.7309 14.5731 38.397 12.5431 36.5427L21.136 27.1357C21.6435 27.5993 22.2559 27.9328 22.9207 28.1075L19.6819 40.4299Z"/>
</mask>
<path d="M19.6819 40.4299C17.0228 39.7309 14.5731 38.397 12.5431 36.5427L21.136 27.1357C21.6435 27.5993 22.2559 27.9328 22.9207 28.1075L19.6819 40.4299Z" fill="#9A031E" stroke="#FFE2D0" stroke-width="0.08" mask="url(#path-8-inside-8_381_13124)"/>
<mask id="path-9-inside-9_381_13124" fill="white">
<path d="M12.5418 36.5419C10.512 34.6875 8.96255 32.368 8.02665 29.7828L20.0067 25.4458C20.2406 26.0921 20.628 26.672 21.1355 27.1356L12.5418 36.5419Z"/>
</mask>
<path d="M12.5418 36.5419C10.512 34.6875 8.96255 32.368 8.02665 29.7828L20.0067 25.4458C20.2406 26.0921 20.628 26.672 21.1355 27.1356L12.5418 36.5419Z" fill="#F0A202" stroke="#FFE2D0" stroke-width="0.08" mask="url(#path-9-inside-9_381_13124)"/>
<mask id="path-10-inside-10_381_13124" fill="white">
<path d="M8.02609 29.7815C7.09038 27.1962 6.79615 24.4224 7.16868 21.6983L19.7921 23.4246C19.6989 24.1057 19.7725 24.7991 20.0064 25.4454L8.02609 29.7815Z"/>
</mask>
<path d="M8.02609 29.7815C7.09038 27.1962 6.79615 24.4224 7.16868 21.6983L19.7921 23.4246C19.6989 24.1057 19.7725 24.7991 20.0064 25.4454L8.02609 29.7815Z" fill="#CFCFCF" stroke="#FFE2D0" stroke-width="0.08" mask="url(#path-10-inside-10_381_13124)"/>
<mask id="path-11-inside-11_381_13124" fill="white">
<path d="M7.16875 21.6968C7.54148 18.9728 8.56982 16.3799 10.1655 14.1409L20.5412 21.5351C20.1423 22.0948 19.8852 22.743 19.792 23.4241L7.16875 21.6968Z"/>
</mask>
<path d="M7.16875 21.6968C7.54148 18.9728 8.56982 16.3799 10.1655 14.1409L20.5412 21.5351C20.1423 22.0948 19.8852 22.743 19.792 23.4241L7.16875 21.6968Z" fill="#8093F1" stroke="#FFE2D0" stroke-width="0.08" mask="url(#path-11-inside-11_381_13124)"/>
<mask id="path-12-inside-12_381_13124" fill="white">
<path d="M10.1664 14.1398C11.7622 11.9009 13.8776 10.0828 16.3309 8.84156L22.0827 20.2102C21.4694 20.5205 20.9406 20.9751 20.5416 21.5348L10.1664 14.1398Z"/>
</mask>
<path d="M10.1664 14.1398C11.7622 11.9009 13.8776 10.0828 16.3309 8.84156L22.0827 20.2102C21.4694 20.5205 20.9406 20.9751 20.5416 21.5348L10.1664 14.1398Z" fill="#3D348B" stroke="#FFE2D0" stroke-width="0.08" mask="url(#path-12-inside-12_381_13124)"/>
<mask id="path-13-inside-13_381_13124" fill="white">
<path d="M16.3599 8.86644C18.8134 7.62566 21.5314 6.99894 24.2806 7.04011L24.0898 19.7796C23.4025 19.7693 22.723 19.926 22.1096 20.2362L16.3599 8.86644Z"/>
</mask>
<path d="M16.3599 8.86644C18.8134 7.62566 21.5314 6.99894 24.2806 7.04011L24.0898 19.7796C23.4025 19.7693 22.723 19.926 22.1096 20.2362L16.3599 8.86644Z" fill="#FF6F61" stroke="#FFE2D0" stroke-width="0.08" mask="url(#path-13-inside-13_381_13124)"/>
</svg>
